<?xml version="1.0" encoding="iso-8859-1"?>
<!-- Generator: Adobe Illustrator 19.0.0, SVG Export Plug-In . SVG Version: 6.00 Build 0)  -->
<svg version="1.1" id="Layer_1" xmlns="http://www.w3.org/2000/svg" xmlns:xlink="http://www.w3.org/1999/xlink" x="0px" y="0px"
	 viewBox="0 0 299.592 299.592" style="enable-background:new 0 0 299.592 299.592;" xml:space="preserve">
<g>
	<path style="fill:#333E48;" d="M15.677,63.02c-7.146,0-12.939-5.791-12.943-12.938C2.729,42.934,8.521,37.136,15.67,37.131
		l268.128-0.149c0.002,0,0.006,0,0.008,0c7.145,0,12.939,5.79,12.943,12.937c0.004,7.148-5.789,12.947-12.936,12.951L15.684,63.02
		C15.683,63.02,15.679,63.02,15.677,63.02z"/>
	<g>
		<path style="fill:#009638;" d="M231.466,0.001l-12.021,0.006c-27.572,0.016-49.912,22.38-49.896,49.954
			c0.016,27.572,22.381,49.912,49.951,49.896l12.021-0.006L231.466,0.001z"/>
		<circle style="fill:#00BD5E;" cx="231.493" cy="49.926" r="49.926"/>
	</g>
	<path style="fill:#333E48;" d="M15.787,262.72c-7.146,0-12.939-5.79-12.944-12.937c-0.003-7.149,5.788-12.948,12.937-12.951
		l268.127-0.15c0.002,0,0.006,0,0.008,0c7.147,0,12.94,5.791,12.943,12.938c0.006,7.15-5.787,12.947-12.936,12.951l-268.128,0.148
		C15.792,262.72,15.789,262.72,15.787,262.72z"/>
	<g>
		<path style="fill:#BF534F;" d="M202.935,199.735l-12.021,0.008c-27.57,0.014-49.912,22.377-49.897,49.951
			c0.016,27.574,22.381,49.913,49.953,49.898l12.02-0.007L202.935,199.735z"/>
		<circle style="fill:#FF6D68;" cx="202.961" cy="249.661" r="49.925"/>
	</g>
	<path style="fill:#333E48;" d="M15.734,166.314c-7.146,0-12.94-5.79-12.944-12.937c-0.004-7.149,5.788-12.948,12.937-12.951
		l268.128-0.149c0.002,0,0.006,0,0.008,0c7.147,0,12.94,5.79,12.943,12.937c0.004,7.149-5.789,12.948-12.938,12.951l-268.127,0.149
		C15.739,166.314,15.736,166.314,15.734,166.314z"/>
	<g>
		<path style="fill:#005FAD;" d="M101.703,103.392L89.682,103.4c-27.572,0.014-49.913,22.378-49.897,49.951
			c0.015,27.573,22.381,49.914,49.953,49.899l12.021-0.008L101.703,103.392z"/>
		<circle style="fill:#0071CE;" cx="101.73" cy="153.317" r="49.925"/>
	</g>
</g>
<g>
</g>
<g>
</g>
<g>
</g>
<g>
</g>
<g>
</g>
<g>
</g>
<g>
</g>
<g>
</g>
<g>
</g>
<g>
</g>
<g>
</g>
<g>
</g>
<g>
</g>
<g>
</g>
<g>
</g>
</svg>
